<svg width="140" height="40" viewBox="0 0 140 40" fill="none" xmlns="http://www.w3.org/2000/svg">
<rect x="12.5" y="10.5" width="115" height="19" rx="9.5" fill="#651C25" fill-opacity="0.8" stroke="black"/>
<path d="M26.42 21.2C26.4853 21.0973 26.546 20.9527 26.602 20.766C26.6673 20.5793 26.7 20.3973 26.7 20.22H29.444C29.92 20.22 30.2653 20.206 30.48 20.178C30.704 20.1407 30.8253 20.108 30.844 20.08C30.7787 20.1733 30.7133 20.3133 30.648 20.5C30.592 20.6773 30.564 20.864 30.564 21.06H28.1C27.5867 21.06 27.1947 21.0787 26.924 21.116C26.6533 21.144 26.4853 21.172 26.42 21.2ZM39.135 24C39.2003 24 39.2656 23.9347 39.331 23.804C39.3963 23.6733 39.429 23.4587 39.429 23.16V17.14C39.429 16.9347 39.4056 16.8133 39.359 16.776C39.3123 16.7387 39.149 16.72 38.869 16.72H37.847C37.3056 16.72 36.867 16.7807 36.531 16.902C36.2043 17.014 35.9896 17.1213 35.887 17.224L36.167 15.88V15.6H44.259V15.88L44.539 17.224C44.4363 17.1213 44.217 17.014 43.881 16.902C43.5543 16.7807 43.1203 16.72 42.579 16.72H41.571C41.2816 16.72 41.1136 16.7387 41.067 16.776C41.0203 16.8133 40.997 16.9347 40.997 17.14V23.16C40.997 23.4587 41.0296 23.6733 41.095 23.804C41.1603 23.9347 41.2256 24 41.291 24H39.135ZM48.5027 24.14C47.5694 24.14 46.8367 23.9907 46.3047 23.692C45.782 23.3933 45.4134 22.9873 45.1987 22.474C44.9934 21.9607 44.8907 21.382 44.8907 20.738C44.8907 20.0847 44.998 19.5013 45.2127 18.988C45.4367 18.4747 45.81 18.0687 46.3327 17.77C46.8554 17.462 47.5787 17.308 48.5027 17.308C49.4267 17.308 50.15 17.462 50.6727 17.77C51.1954 18.0687 51.564 18.4747 51.7787 18.988C52.0027 19.5013 52.1147 20.0847 52.1147 20.738C52.1147 21.382 52.0074 21.9607 51.7927 22.474C51.5874 22.9873 51.2234 23.3933 50.7007 23.692C50.178 23.9907 49.4454 24.14 48.5027 24.14ZM48.5027 23.146C49.0814 23.146 49.5294 23.0527 49.8467 22.866C50.164 22.6793 50.3834 22.4087 50.5047 22.054C50.626 21.69 50.6867 21.2513 50.6867 20.738C50.6867 20.2247 50.6214 19.786 50.4907 19.422C50.3694 19.058 50.15 18.778 49.8327 18.582C49.5247 18.386 49.0814 18.288 48.5027 18.288C47.9334 18.288 47.49 18.3907 47.1727 18.596C46.8554 18.792 46.6314 19.0767 46.5007 19.45C46.3794 19.814 46.3187 20.248 46.3187 20.752C46.3187 21.2467 46.3794 21.676 46.5007 22.04C46.622 22.3947 46.8414 22.67 47.1587 22.866C47.476 23.0527 47.924 23.146 48.5027 23.146ZM57.0278 24.14C56.1412 24.14 55.4505 23.9907 54.9558 23.692C54.4705 23.3933 54.1298 22.9873 53.9338 22.474C53.7472 21.9607 53.6538 21.382 53.6538 20.738C53.6538 20.0847 53.7472 19.5013 53.9338 18.988C54.1298 18.4747 54.4705 18.0687 54.9558 17.77C55.4505 17.462 56.1412 17.308 57.0278 17.308C57.5878 17.308 58.0545 17.3827 58.4278 17.532C58.8012 17.6813 59.0952 17.8727 59.3098 18.106L59.3378 18.092L59.3098 17.826V15.18C59.3098 14.8813 59.2772 14.6713 59.2118 14.55C59.1558 14.4193 59.0952 14.3493 59.0298 14.34H60.7378V23.16C60.7378 23.4587 60.7658 23.6733 60.8218 23.804C60.8872 23.9347 60.9525 24 61.0178 24H59.3098V23.566L59.3518 23.3L59.3098 23.286C59.0952 23.5287 58.8012 23.734 58.4278 23.902C58.0545 24.0607 57.5878 24.14 57.0278 24.14ZM57.1258 23.146C57.6018 23.146 57.9845 23.076 58.2738 22.936C58.5632 22.7867 58.7825 22.5953 58.9318 22.362C59.0812 22.1193 59.1792 21.858 59.2258 21.578C59.2818 21.298 59.3098 21.018 59.3098 20.738C59.3098 20.4953 59.2818 20.234 59.2258 19.954C59.1698 19.6647 59.0672 19.394 58.9178 19.142C58.7685 18.89 58.5492 18.6847 58.2598 18.526C57.9705 18.3673 57.5925 18.288 57.1258 18.288C56.3418 18.288 55.8005 18.512 55.5018 18.96C55.2125 19.408 55.0678 20.0053 55.0678 20.752C55.0678 21.2467 55.1238 21.676 55.2358 22.04C55.3572 22.3947 55.5672 22.67 55.8658 22.866C56.1645 23.0527 56.5845 23.146 57.1258 23.146ZM66.3844 24.14C65.4511 24.14 64.7184 23.9907 64.1864 23.692C63.6638 23.3933 63.2951 22.9873 63.0804 22.474C62.8751 21.9607 62.7724 21.382 62.7724 20.738C62.7724 20.0847 62.8798 19.5013 63.0944 18.988C63.3184 18.4747 63.6918 18.0687 64.2144 17.77C64.7371 17.462 65.4604 17.308 66.3844 17.308C67.3084 17.308 68.0318 17.462 68.5544 17.77C69.0771 18.0687 69.4458 18.4747 69.6604 18.988C69.8844 19.5013 69.9964 20.0847 69.9964 20.738C69.9964 21.382 69.8891 21.9607 69.6744 22.474C69.4691 22.9873 69.1051 23.3933 68.5824 23.692C68.0598 23.9907 67.3271 24.14 66.3844 24.14ZM66.3844 23.146C66.9631 23.146 67.4111 23.0527 67.7284 22.866C68.0458 22.6793 68.2651 22.4087 68.3864 22.054C68.5078 21.69 68.5684 21.2513 68.5684 20.738C68.5684 20.2247 68.5031 19.786 68.3724 19.422C68.2511 19.058 68.0318 18.778 67.7144 18.582C67.4064 18.386 66.9631 18.288 66.3844 18.288C65.8151 18.288 65.3718 18.3907 65.0544 18.596C64.7371 18.792 64.5131 19.0767 64.3824 19.45C64.2611 19.814 64.2004 20.248 64.2004 20.752C64.2004 21.2467 64.2611 21.676 64.3824 22.04C64.5038 22.3947 64.7231 22.67 65.0404 22.866C65.3578 23.0527 65.8058 23.146 66.3844 23.146ZM75.0808 24C75.1182 24 75.1835 23.9347 75.2768 23.804C75.3702 23.6733 75.4915 23.454 75.6408 23.146C75.7062 23.006 75.8182 22.768 75.9768 22.432C76.1355 22.096 76.3222 21.6993 76.5368 21.242C76.7515 20.7847 76.9755 20.3087 77.2088 19.814C77.4422 19.31 77.6615 18.8293 77.8668 18.372C78.0815 17.9147 78.2682 17.5133 78.4268 17.168C78.5855 16.8227 78.6975 16.58 78.7628 16.44C78.8935 16.1413 78.9635 15.9267 78.9728 15.796C78.9822 15.6653 78.9635 15.6 78.9168 15.6H81.3668C81.3295 15.6 81.3155 15.6653 81.3248 15.796C81.3342 15.9267 81.3995 16.1413 81.5208 16.44C81.5862 16.58 81.6935 16.8227 81.8428 17.168C81.9922 17.504 82.1695 17.9007 82.3748 18.358C82.5895 18.8153 82.8088 19.2913 83.0328 19.786C83.2568 20.2713 83.4762 20.7427 83.6908 21.2C83.9055 21.6573 84.0922 22.0587 84.2508 22.404C84.4095 22.7493 84.5262 22.9967 84.6008 23.146C84.7502 23.454 84.8855 23.6733 85.0068 23.804C85.1375 23.9347 85.2355 24 85.3008 24H82.7108C82.8042 23.9813 82.8788 23.9067 82.9348 23.776C83.0002 23.6453 82.9908 23.4353 82.9068 23.146C82.8882 23.0713 82.8555 22.964 82.8088 22.824C82.7622 22.684 82.7202 22.5813 82.6828 22.516C82.5988 22.3293 82.5102 22.2127 82.4168 22.166C82.3328 22.1193 82.1695 22.096 81.9268 22.096H78.3428C78.0722 22.096 77.8855 22.1147 77.7828 22.152C77.6895 22.1893 77.6102 22.306 77.5448 22.502C77.5075 22.614 77.4702 22.726 77.4328 22.838C77.3955 22.95 77.3675 23.0527 77.3488 23.146C77.2648 23.454 77.2415 23.6733 77.2788 23.804C77.3162 23.9347 77.3675 24 77.4328 24H75.0808ZM78.7068 20.976H81.5208C81.7915 20.976 81.9408 20.9527 81.9688 20.906C81.9968 20.8593 81.9828 20.7567 81.9268 20.598C81.7588 20.1967 81.5628 19.758 81.3388 19.282C81.1242 18.806 80.9095 18.3393 80.6948 17.882C80.4895 17.4247 80.3075 17.0373 80.1488 16.72H80.1208C79.9248 17.1307 79.7242 17.56 79.5188 18.008C79.3135 18.4467 79.1175 18.862 78.9308 19.254C78.7535 19.6367 78.6088 19.9493 78.4968 20.192C78.3848 20.4347 78.3288 20.556 78.3288 20.556C78.2635 20.7053 78.2402 20.8127 78.2588 20.878C78.2868 20.9433 78.4362 20.976 78.7068 20.976ZM86.5635 27.108C86.6288 27.108 86.6895 27.0427 86.7455 26.912C86.8108 26.7813 86.8435 26.5667 86.8435 26.268V18.288C86.8435 17.9893 86.8108 17.7793 86.7455 17.658C86.6895 17.5273 86.6288 17.4573 86.5635 17.448H88.2715V17.728L88.2435 17.994L88.2715 18.022C88.4581 17.8447 88.7381 17.6813 89.1115 17.532C89.4941 17.3827 89.9421 17.308 90.4555 17.308C91.3235 17.308 92.0095 17.462 92.5135 17.77C93.0175 18.0687 93.3768 18.4747 93.5915 18.988C93.8155 19.5013 93.9275 20.0847 93.9275 20.738C93.9275 21.382 93.8201 21.9607 93.6055 22.474C93.3908 22.9873 93.0315 23.3933 92.5275 23.692C92.0235 23.9907 91.3328 24.14 90.4555 24.14C89.9421 24.14 89.5081 24.0793 89.1535 23.958C88.8081 23.8367 88.5141 23.6687 88.2715 23.454L88.2435 23.468L88.2715 23.734V26.268C88.2715 26.5667 88.2995 26.7813 88.3555 26.912C88.4208 27.0427 88.4861 27.108 88.5515 27.108H86.5635ZM90.3155 23.146C90.8941 23.146 91.3421 23.0527 91.6595 22.866C91.9768 22.6793 92.1961 22.4087 92.3175 22.054C92.4388 21.69 92.4995 21.2513 92.4995 20.738C92.4995 20.2247 92.4341 19.786 92.3035 19.422C92.1821 19.058 91.9628 18.778 91.6455 18.582C91.3375 18.386 90.8941 18.288 90.3155 18.288C89.7555 18.288 89.3261 18.4 89.0275 18.624C88.7381 18.848 88.5375 19.1467 88.4255 19.52C88.3228 19.8933 88.2715 20.304 88.2715 20.752C88.2715 21.2093 88.3275 21.62 88.4395 21.984C88.5608 22.348 88.7661 22.6327 89.0555 22.838C89.3541 23.0433 89.7741 23.146 90.3155 23.146ZM95.6274 27.108C95.6927 27.108 95.7534 27.0427 95.8094 26.912C95.8747 26.7813 95.9074 26.5667 95.9074 26.268V18.288C95.9074 17.9893 95.8747 17.7793 95.8094 17.658C95.7534 17.5273 95.6927 17.4573 95.6274 17.448H97.3354V17.728L97.3074 17.994L97.3354 18.022C97.522 17.8447 97.802 17.6813 98.1754 17.532C98.558 17.3827 99.006 17.308 99.5194 17.308C100.387 17.308 101.073 17.462 101.577 17.77C102.081 18.0687 102.441 18.4747 102.655 18.988C102.879 19.5013 102.991 20.0847 102.991 20.738C102.991 21.382 102.884 21.9607 102.669 22.474C102.455 22.9873 102.095 23.3933 101.591 23.692C101.087 23.9907 100.397 24.14 99.5194 24.14C99.006 24.14 98.572 24.0793 98.2174 23.958C97.872 23.8367 97.578 23.6687 97.3354 23.454L97.3074 23.468L97.3354 23.734V26.268C97.3354 26.5667 97.3634 26.7813 97.4194 26.912C97.4847 27.0427 97.55 27.108 97.6154 27.108H95.6274ZM99.3794 23.146C99.958 23.146 100.406 23.0527 100.723 22.866C101.041 22.6793 101.26 22.4087 101.381 22.054C101.503 21.69 101.563 21.2513 101.563 20.738C101.563 20.2247 101.498 19.786 101.367 19.422C101.246 19.058 101.027 18.778 100.709 18.582C100.401 18.386 99.958 18.288 99.3794 18.288C98.8194 18.288 98.39 18.4 98.0914 18.624C97.802 18.848 97.6014 19.1467 97.4894 19.52C97.3867 19.8933 97.3354 20.304 97.3354 20.752C97.3354 21.2093 97.3914 21.62 97.5034 21.984C97.6247 22.348 97.83 22.6327 98.1194 22.838C98.418 23.0433 98.838 23.146 99.3794 23.146ZM108.391 21.2C108.456 21.0973 108.517 20.9527 108.573 20.766C108.638 20.5793 108.671 20.3973 108.671 20.22H111.415C111.891 20.22 112.236 20.206 112.451 20.178C112.675 20.1407 112.796 20.108 112.815 20.08C112.749 20.1733 112.684 20.3133 112.619 20.5C112.563 20.6773 112.535 20.864 112.535 21.06H110.071C109.557 21.06 109.165 21.0787 108.895 21.116C108.624 21.144 108.456 21.172 108.391 21.2Z" fill="white"/>
<rect x="3" y="3" width="134" height="34" rx="17" stroke="#651C25" stroke-width="6"/>
</svg>
