<svg width="51" height="51" viewBox="0 0 51 51" fill="none" xmlns="http://www.w3.org/2000/svg">
<path d="M4.21041 16.8217C5.29452 13.5672 7.01399 10.5807 9.26099 8.04923C11.508 5.5178 14.234 3.49614 17.2682 2.11103C20.3024 0.725924 23.5792 0.00724215 26.8932 5.44469e-05C30.2072 -0.00713325 33.4869 0.697329 36.5266 2.06926C39.5663 3.4412 42.3004 5.45101 44.5576 7.97267C46.8147 10.4943 48.5462 13.4734 49.6433 16.7232C50.7405 19.9729 51.1797 23.4232 50.9335 26.8576C50.6872 30.2921 49.7608 33.6366 48.2123 36.6815L43.9585 34.3452C45.1973 31.9093 45.9385 29.2337 46.1355 26.4861C46.3325 23.7386 45.9811 20.9783 45.1033 18.3785C44.2256 15.7788 42.8404 13.3955 41.0347 11.3781C39.229 9.36081 37.0417 7.75296 34.6099 6.65541C32.1782 5.55786 29.5544 4.99429 26.9032 5.00004C24.252 5.00579 21.6306 5.58074 19.2032 6.68883C16.7759 7.79691 14.5951 9.41424 12.7975 11.4394C10.9999 13.4645 9.6243 15.8538 8.75701 18.4574L4.21041 16.8217Z" fill="#381614"/>
<ellipse cx="40.8962" cy="40.5" rx="4.33019" ry="4.5" fill="black"/>
<ellipse cx="4.33019" cy="24.5" rx="4.33019" ry="4.5" fill="black"/>
<ellipse cx="30.3113" cy="46.5" rx="4.33019" ry="4.5" fill="black"/>
<ellipse cx="7.21698" cy="36.5" rx="4.33019" ry="4.5" fill="black"/>
<ellipse cx="16.8396" cy="45.5" rx="4.33019" ry="4.5" fill="black"/>
</svg>
